<svg class="svg-icon" style="width: 1em; height: 1em;vertical-align: middle;fill: currentColor;overflow: hidden;" viewBox="0 0 1024 1024" version="1.1" xmlns="http://www.w3.org/2000/svg"><path d="M925.789091 606.952727H191.301818c-25.134545 0-45.614545-20.48-45.614545-45.614545s20.48-45.614545 45.614545-45.614546h734.021818c25.134545 0 45.614545 20.48 45.614546 45.614546s-20.48 45.614545-45.149091 45.614545z" fill="#BBEBA1" /><path d="M416.116364 815.476364c-31.650909 0-61.905455-25.6-61.905455-57.250909V364.450909c0-31.650909 25.6-57.250909 57.250909-57.250909 31.650909 0 57.250909 25.6 57.250909 57.250909v393.774546c0 31.185455-20.945455 57.250909-52.596363 57.250909zM296.96 753.570909c-31.650909 0-57.250909-25.6-57.250909-57.250909V435.2c0-31.650909 25.6-57.250909 57.250909-57.250909 31.650909 0 57.250909 25.6 57.250909 57.250909v261.585455c0 31.185455-25.6 56.785455-57.250909 56.785454zM711.68 815.476364c31.650909 0 52.596364-25.6 52.596364-57.250909V364.450909c0-31.650909-25.6-57.250909-57.250909-57.250909-31.650909 0-57.250909 25.6-57.25091 57.250909v393.774546c0 31.185455 30.254545 57.250909 61.905455 57.250909z" fill="#BBEBA1" /><path d="M821.527273 753.570909c31.650909 0 57.250909-25.6 57.250909-57.250909V435.2c0-31.650909-25.6-57.250909-57.250909-57.250909-31.650909 0-57.250909 25.6-57.250909 57.250909v261.585455c0 31.185455 25.6 56.785455 57.250909 56.785454z" fill="#BBEBA1" /><path d="M151.738182 576.698182h-28.858182c-37.701818 0-68.887273-30.72-68.887273-68.887273s30.72-68.887273 68.887273-68.887273h28.858182c13.032727 0 23.272727 10.24 23.272727 23.272728s-10.24 23.272727-23.272727 23.272727h-28.858182c-12.101818 0-22.341818 9.774545-22.341818 22.341818s9.774545 22.341818 22.341818 22.341818h28.858182c13.032727 0 23.272727 10.24 23.272727 23.272728s-10.24 23.272727-23.272727 23.272727zM581.352727 576.698182H411.461818c-13.032727 0-23.272727-10.24-23.272727-23.272727s10.24-23.272727 23.272727-23.272728h169.425455c13.032727 0 23.272727 10.24 23.272727 23.272728s-10.24 23.272727-22.807273 23.272727zM857.367273 576.698182h-29.323637c-13.032727 0-23.272727-10.24-23.272727-23.272727s10.24-23.272727 23.272727-23.272728h29.323637c12.101818 0 22.341818-9.774545 22.341818-22.341818s-9.774545-22.341818-22.341818-22.341818h-25.134546c-13.032727 0-23.272727-10.24-23.272727-23.272727s10.24-23.272727 23.272727-23.272728h25.134546c38.167273 0 68.887273 30.72 68.887272 68.887273s-31.185455 68.887273-68.887272 68.887273zM576.698182 485.469091H404.945455c-13.032727 0-23.272727-10.24-23.272728-23.272727s10.24-23.272727 23.272728-23.272728h171.752727c13.032727 0 23.272727 10.24 23.272727 23.272728s-10.24 23.272727-23.272727 23.272727z" fill="#353E43" /><path d="M343.505455 770.327273c-44.218182 0-80.523636-36.305455-80.523637-80.523637V296.029091c0-44.218182 36.305455-80.523636 80.523637-80.523636s80.523636 36.305455 80.523636 80.523636v393.774545c0 44.218182-36.305455 80.523636-80.523636 80.523637z m0-508.276364c-18.618182 0-33.978182 15.36-33.978182 33.978182v393.774545c0 18.618182 15.36 33.978182 33.978182 33.978182s33.978182-15.36 33.978181-33.978182V296.029091c0-18.618182-15.36-33.978182-33.978181-33.978182z" fill="#353E43" /><path d="M229.003636 708.421818c-44.218182 0-80.523636-36.305455-80.523636-80.523636V366.778182c0-44.218182 36.305455-80.523636 80.523636-80.523637s80.523636 36.305455 80.523637 80.523637V628.363636c0 44.218182-36.305455 80.058182-80.523637 80.058182z m0-375.621818c-18.618182 0-33.978182 15.36-33.978181 33.978182V628.363636c0 18.618182 15.36 33.978182 33.978181 33.978182s33.978182-15.36 33.978182-33.978182V366.778182c0-18.618182-15.36-33.978182-33.978182-33.978182zM638.603636 770.327273c-44.218182 0-80.523636-36.305455-80.523636-80.523637V296.029091c0-44.218182 36.305455-80.523636 80.523636-80.523636s80.523636 36.305455 80.523637 80.523636v393.774545c0 44.218182-36.305455 80.523636-80.523637 80.523637z m0-508.276364c-18.618182 0-33.978182 15.36-33.978181 33.978182v393.774545c0 18.618182 15.36 33.978182 33.978181 33.978182s33.978182-15.36 33.978182-33.978182V296.029091c0-18.618182-15.36-33.978182-33.978182-33.978182z" fill="#353E43" /><path d="M753.105455 708.421818c-44.218182 0-80.523636-36.305455-80.523637-80.523636V366.778182c0-44.218182 36.305455-80.523636 80.523637-80.523637s80.523636 36.305455 80.523636 80.523637V628.363636c0 44.218182-36.305455 80.058182-80.523636 80.058182z m0-375.621818c-18.618182 0-33.978182 15.36-33.978182 33.978182V628.363636c0 18.618182 15.36 33.978182 33.978182 33.978182s33.978182-15.36 33.978181-33.978182V366.778182c0-18.618182-15.36-33.978182-33.978181-33.978182z" fill="#353E43" /></svg>